<?xml version="1.0" encoding="utf-8"?>
<!-- Generator: Adobe Illustrator 24.1.1, SVG Export Plug-In . SVG Version: 6.00 Build 0)  -->
<svg version="1.1" xmlns="http://www.w3.org/2000/svg" xmlns:xlink="http://www.w3.org/1999/xlink" x="0px" y="0px"
	 viewBox="0 0 432 288" style="enable-background:new 0 0 432 288;" xml:space="preserve">
<style type="text/css">
	.st0{fill:#1A1A1A;}
	.st1{display:none;}
	.st2{fill:#E3E3E2;}
	.st3{fill:url(#SVGID_1_);}
	.st4{fill:#EA91BD;}
	.st5{fill:#9B1919;}
	.st6{fill:#9A1919;}
	.st7{fill:url(#SVGID_2_);}
	.st8{font-family:'Arboria-Book';}
	.st9{font-size:39.9789px;}
	.st10{fill:url(#SVGID_3_);}
	.st11{fill:url(#SVGID_4_);}
	.st12{clip-path:url(#SVGID_6_);fill:url(#SVGID_7_);}
	.st13{clip-path:url(#SVGID_6_);}
	.st14{clip-path:url(#SVGID_6_);fill:url(#SVGID_8_);}
	.st15{clip-path:url(#SVGID_6_);fill:#A8559C;}
	.st16{fill:url(#SVGID_9_);}
</style>
<g id="Layer_2">
	<rect y="-2" class="st0" width="436" height="290"/>
</g>
<g id="Layer_1" class="st1">
	
		<image style="display:inline;overflow:visible;" width="500" height="500" xlink:href="ResumeIconBaking.png"  transform="matrix(0.2394 0 0 0.2394 294.2957 12.8978)">
	</image>
	
		<image style="display:inline;overflow:visible;" width="500" height="500" xlink:href="ResumeIconStrength.png"  transform="matrix(0.2394 0 0 0.2394 294.2957 156.5159)">
	</image>
	
		<image style="display:inline;overflow:visible;" width="500" height="500" xlink:href="ResumeIconIcecream.png"  transform="matrix(0.2394 0 0 0.2394 156.1479 12.8978)">
	</image>
	
		<image style="display:inline;overflow:visible;" width="500" height="500" xlink:href="ResumeIconPainting.png"  transform="matrix(0.2394 0 0 0.2394 18 156.5159)">
	</image>
	
		<image style="display:inline;overflow:visible;" width="500" height="500" xlink:href="ResumeIconCoding.png"  transform="matrix(0.2394 0 0 0.2394 18 12.8978)">
	</image>
	
		<image style="display:inline;overflow:visible;" width="500" height="500" xlink:href="ResumeIconNature.png"  transform="matrix(0.2394 0 0 0.2394 156.1479 156.5159)">
	</image>
</g>
<g id="Layer_3">
	<g>
		<g>
			<circle class="st2" cx="216" cy="72.7" r="59.9"/>
		</g>
		<g>
			<linearGradient id="SVGID_1_" gradientUnits="userSpaceOnUse" x1="216" y1="99.5636" x2="216" y2="37.1799">
				<stop  offset="4.475343e-07" style="stop-color:#A8559C"/>
				<stop  offset="0.413" style="stop-color:#DB267A"/>
				<stop  offset="0.5" style="stop-color:#E61B72"/>
				<stop  offset="0.5439" style="stop-color:#E61B65"/>
				<stop  offset="0.6691" style="stop-color:#E51945"/>
				<stop  offset="0.7898" style="stop-color:#E4192D"/>
				<stop  offset="0.9026" style="stop-color:#E4181F"/>
				<stop  offset="1" style="stop-color:#E4181A"/>
			</linearGradient>
			<polygon class="st3" points="171.6,99.6 203.2,46.6 210,57.7 222.8,37.2 260.4,99.6 			"/>
			<circle class="st4" cx="241.2" cy="66.8" r="11"/>
			<path class="st5" d="M185.2,108.3h60.6l-12.4-25.7l-5,9.4l-12.9-16.2c0,0-7.6,10.2-7.4,9.9c0.1-0.3-4.7-6.1-4.7-6.1L185.2,108.3z
				"/>
		</g>
	</g>
	<g>
		<g>
			<circle class="st2" cx="353.4" cy="72" r="59.9"/>
		</g>
		<g>
			<rect x="312.4" y="38.6" class="st6" width="81.8" height="66.7"/>
			<linearGradient id="SVGID_2_" gradientUnits="userSpaceOnUse" x1="353.1999" y1="102.1027" x2="353.1999" y2="48.6864">
				<stop  offset="4.475343e-07" style="stop-color:#A8559C"/>
				<stop  offset="0.413" style="stop-color:#DB267A"/>
				<stop  offset="0.5" style="stop-color:#E61B72"/>
				<stop  offset="0.5439" style="stop-color:#E61B65"/>
				<stop  offset="0.6691" style="stop-color:#E51945"/>
				<stop  offset="0.7898" style="stop-color:#E4192D"/>
				<stop  offset="0.9026" style="stop-color:#E4181F"/>
				<stop  offset="1" style="stop-color:#E4181A"/>
			</linearGradient>
			<rect x="316" y="48.7" class="st7" width="74.4" height="53.4"/>
			<circle class="st4" cx="388.2" cy="43.5" r="2.3"/>
			<circle class="st4" cx="381.6" cy="43.5" r="2.3"/>
			<circle class="st4" cx="374.6" cy="43.5" r="2.3"/>
			<text transform="matrix(1 0 0 1 321.993 87.0013)" class="st4 st8 st9">&lt;/&gt;</text>
		</g>
	</g>
	<g>
		<g>
			<circle class="st2" cx="285.3" cy="214.9" r="59.9"/>
		</g>
		<g>
			<rect x="237.5" y="209.8" class="st5" width="95.5" height="9.5"/>
			<linearGradient id="SVGID_3_" gradientUnits="userSpaceOnUse" x1="262.6148" y1="242.5801" x2="262.6148" y2="187.7757">
				<stop  offset="4.475343e-07" style="stop-color:#A8559C"/>
				<stop  offset="0.413" style="stop-color:#DB267A"/>
				<stop  offset="0.5" style="stop-color:#E61B72"/>
				<stop  offset="0.5439" style="stop-color:#E61B65"/>
				<stop  offset="0.6691" style="stop-color:#E51945"/>
				<stop  offset="0.7898" style="stop-color:#E4192D"/>
				<stop  offset="0.9026" style="stop-color:#E4181F"/>
				<stop  offset="1" style="stop-color:#E4181A"/>
			</linearGradient>
			<rect x="255.8" y="187.8" class="st10" width="13.7" height="54.8"/>
			<linearGradient id="SVGID_4_" gradientUnits="userSpaceOnUse" x1="307.5911" y1="241.9971" x2="307.5911" y2="187.1927">
				<stop  offset="4.475343e-07" style="stop-color:#A8559C"/>
				<stop  offset="0.413" style="stop-color:#DB267A"/>
				<stop  offset="0.5" style="stop-color:#E61B72"/>
				<stop  offset="0.5439" style="stop-color:#E61B65"/>
				<stop  offset="0.6691" style="stop-color:#E51945"/>
				<stop  offset="0.7898" style="stop-color:#E4192D"/>
				<stop  offset="0.9026" style="stop-color:#E4181F"/>
				<stop  offset="1" style="stop-color:#E4181A"/>
			</linearGradient>
			<rect x="300.8" y="187.2" class="st11" width="13.7" height="54.8"/>
			<rect x="245.2" y="194" class="st4" width="10.5" height="41.8"/>
			<rect x="314.4" y="194.3" class="st4" width="10.5" height="41.8"/>
		</g>
	</g>
	<g>
		<g>
			<circle class="st2" cx="146.8" cy="214.9" r="59.9"/>
		</g>
		<g>
			
				<rect x="107.2" y="203.5" transform="matrix(-1.836970e-16 1 -1 -1.836970e-16 353.5117 59.5009)" class="st5" width="79.5" height="6.1"/>
			
				<rect x="107.4" y="234.2" transform="matrix(-0.1736 0.9848 -0.9848 -0.1736 389.8092 147.3211)" class="st5" width="51.4" height="6.1"/>
			
				<rect x="134.3" y="234.2" transform="matrix(0.1737 0.9848 -0.9848 0.1737 365.8025 38.4326)" class="st5" width="51.4" height="6.1"/>
			<g>
				<defs>
					<rect id="SVGID_5_" x="122" y="174.5" width="49" height="66.6"/>
				</defs>
				<clipPath id="SVGID_6_">
					<use xlink:href="#SVGID_5_"  style="overflow:visible;"/>
				</clipPath>
				<linearGradient id="SVGID_7_" gradientUnits="userSpaceOnUse" x1="146.2142" y1="240.0303" x2="146.2142" y2="173.3155">
					<stop  offset="4.475343e-07" style="stop-color:#A8559C"/>
					<stop  offset="0.413" style="stop-color:#DB267A"/>
					<stop  offset="0.5" style="stop-color:#E61B72"/>
					<stop  offset="0.5439" style="stop-color:#E61B65"/>
					<stop  offset="0.6691" style="stop-color:#E51945"/>
					<stop  offset="0.7898" style="stop-color:#E4192D"/>
					<stop  offset="0.9026" style="stop-color:#E4181F"/>
					<stop  offset="1" style="stop-color:#E4181A"/>
				</linearGradient>
				<rect x="120.2" y="173.3" class="st12" width="52" height="66.7"/>
				<g class="st13">
					<path class="st4" d="M166.5,198.3v-2.6c0-0.3-0.1-0.6-0.3-0.9h0.4c1,0,1.8-0.8,1.8-1.8v-1.1c0-1-0.8-1.8-1.8-1.8h-10.7
						c-1,0-1.8,0.8-1.8,1.8v1.1c0,0.3,0.1,0.6,0.3,0.9h-4.6c-1,0-1.8,0.8-1.8,1.8v2.6h-18.4c-1.4,0-2.5,1.1-2.5,2.5v1.5
						c0,1.4,1.1,2.5,2.5,2.5h22c0,1.1,0.9,2,2,2h10.7c1.1,0,2-0.9,2-2c1.4,0,2.5-1.1,2.5-2.5v-1.5
						C168.9,199.4,167.8,198.3,166.5,198.3z"/>
					<path class="st4" d="M151.3,190h-4c-0.4,0-0.7-0.3-0.7-0.7v-2.4c0-0.4,0.3-0.7,0.7-0.7h4c0.4,0,0.7,0.3,0.7,0.7v2.4
						C152,189.7,151.7,190,151.3,190z"/>
				</g>
				<g class="st13">
					<path class="st5" d="M176.4,225.7c0.4,0.2,0.7,0.6,0.9,1C178.2,226.2,175.5,225.2,176.4,225.7z"/>
					<path class="st5" d="M177.3,226.7c-0.5,0.3-2.3,0.4-6.8-0.2c-10.4-1.3-19.1-18.1-27.5-23.7v-2.7l1.6-1.6c0.4-0.4,0.4-1,0-1.4
						c-0.4-0.4-1-0.4-1.4,0l-0.2,0.2v-2.4c0-0.6-0.4-1-1-1s-1,0.4-1,1v4.6c0,0.1,0,0.3,0,0.4v1.8c-0.5-0.2-1-0.4-1.6-0.5v-8l3-3.1
						c0.4-0.4,0.4-1,0-1.4c-0.4-0.4-1-0.4-1.4,0l-1.5,1.6v-1.6c0-0.6-0.4-1-1-1s-1,0.4-1,1v4.2l-2.2-2.3c-0.4-0.4-1-0.4-1.4,0
						c-0.4,0.4-0.4,1,0,1.4l3.6,3.7v1.7l-0.3-0.3c-0.4-0.3-1.1-0.3-1.4,0.2c-0.3,0.4-0.3,1.1,0.2,1.4l1.6,1.2v1
						c-1.4-0.1-2.8-0.1-4.1,0.1v-4.2c0-0.6-0.4-1-1-1s-1,0.4-1,1v0.1l-0.2-0.2c-0.4-0.4-1-0.4-1.4,0c-0.4,0.4-0.4,1,0,1.4l1.6,1.6
						v1.6c-6,1.3-10.6,5-13.8,8.5c-8.1,8.9-10.2,23.1-5,32.5c10.7,19.5,52.2,16.6,62.1,1.1C177.8,238.4,179.1,229.9,177.3,226.7z"/>
				</g>
				<linearGradient id="SVGID_8_" gradientUnits="userSpaceOnUse" x1="141.7263" y1="249.5191" x2="141.7263" y2="217.6248">
					<stop  offset="4.475343e-07" style="stop-color:#A8559C"/>
					<stop  offset="0.7757" style="stop-color:#DB267A"/>
					<stop  offset="0.939" style="stop-color:#E61B72"/>
				</linearGradient>
				<path class="st14" d="M155.3,231.5v-1.9c0,0,0.1,0,0.1-0.1l1.6-1.6c0.4-0.4,0.4-1,0-1.4c-0.4-0.4-1-0.4-1.4,0l-0.3,0.3v-0.6
					c0-0.6-0.4-1-1-1s-1,0.4-1,1v4.2c-0.8-0.4-1.6-0.8-2.4-1.2v-3.5l2.7-2.7c0.4-0.4,0.4-1,0-1.4c-0.4-0.4-1-0.4-1.4,0l-1.3,1.3V221
					c0-0.6-0.4-1-1-1s-1,0.4-1,1v4.1c0,0,0,0,0,0l-0.4-0.4c-0.4-0.4-1-0.4-1.4,0c-0.4,0.4-0.4,1,0,1.4l1.6,1.6
					c0.1,0.1,0.1,0.1,0.2,0.1v0.5c-2.2-0.9-4.4-1.6-6.6-2.2c-1.1-0.3-7-1.7-12.7-1.5v-1.4l2.2-2.2c0.4-0.4,0.4-1,0-1.4
					c-0.4-0.4-1-0.4-1.4,0l-0.8,0.8v-1.9c0-0.6-0.4-1-1-1s-1,0.4-1,1v6.3c-3.6,0.4-7,1.6-8.7,4.3c-1.9,3.1-1.3,7.6,0.4,10.7
					c7.7,13.8,44.3,10.9,46.4,3C166.5,239.7,161.7,235.2,155.3,231.5z"/>
				<circle class="st15" cx="157.9" cy="199.1" r="3.1"/>
			</g>
			<rect x="120.8" y="171.1" class="st5" width="51.4" height="6.1"/>
			<rect x="121.3" y="237.7" class="st5" width="51.4" height="6.1"/>
		</g>
	</g>
	<g>
		<g>
			<circle class="st2" cx="77.9" cy="72.7" r="59.9"/>
		</g>
		<g>
			<path class="st5" d="M102.7,58.6c-4.9-4.7-19.1-10.1-24.9-6.2l-9.1-8.6l0.7-0.8L49.8,24.3l-3,3.1l19.8,18.8l0.7-0.8l9,8.6
				c-3.8,5.9,2.4,20,7.4,24.7c5.2,5,15.1,6.2,20.6,0.5c0,0,0,0,0-0.1c0,0,0,0,0,0c0,0,0.1-0.1,0.1-0.2
				C109.7,73.2,107.9,63.5,102.7,58.6z M102.9,77.5c0,0-0.1,0.1-0.1,0.1c-2,2.1-8.7-0.3-13.4-4.8c-5.7-5.4-12-16.6-10.8-18.1
				c0,0,0.1,0,0.1-0.1c1.6-1.2,12.9,4.4,18.6,9.8C102,68.9,104.7,75.3,102.9,77.5z M85.2,77.1c-3.8-3.6-7.8-12.3-7.9-18
				c2.1,5.3,7.4,12.3,10.6,15.2c3.1,3,7.2,5.3,10.6,6C94,81.7,88.5,80.2,85.2,77.1z M105.2,72.8c-0.9-3.3-3.4-7.1-6.4-10
				c-3-2.9-9.9-7.6-15.3-9.6c5.7,0.1,14.1,3.5,17.7,6.9C104.5,63.2,106.2,68.4,105.2,72.8z"/>
			<linearGradient id="SVGID_9_" gradientUnits="userSpaceOnUse" x1="77.885" y1="121.2333" x2="77.885" y2="74.1917">
				<stop  offset="4.475343e-07" style="stop-color:#A8559C"/>
				<stop  offset="0.413" style="stop-color:#DB267A"/>
				<stop  offset="0.5" style="stop-color:#E61B72"/>
				<stop  offset="0.5439" style="stop-color:#E61B65"/>
				<stop  offset="0.6691" style="stop-color:#E51945"/>
				<stop  offset="0.7898" style="stop-color:#E4192D"/>
				<stop  offset="0.9026" style="stop-color:#E4181F"/>
				<stop  offset="1" style="stop-color:#E4181A"/>
			</linearGradient>
			<path class="st16" d="M122.6,74.2H33.1c0,19.7,12.7,36.4,30.3,42.4v4.7h28.9v-4.7C110,110.5,122.6,93.9,122.6,74.2z"/>
			<circle class="st4" cx="54" cy="75.1" r="13"/>
			<circle class="st4" cx="60.9" cy="63.8" r="4.2"/>
			<circle class="st4" cx="46.2" cy="60.7" r="7.9"/>
			<circle class="st4" cx="58.2" cy="50.1" r="2.1"/>
			<circle class="st4" cx="105.1" cy="51.2" r="6.7"/>
			<circle class="st4" cx="109.3" cy="44.1" r="4.4"/>
			<circle class="st4" cx="97.6" cy="48.3" r="3.1"/>
			<circle class="st4" cx="98.1" cy="35.9" r="5.4"/>
			<circle class="st4" cx="115.1" cy="65.8" r="2.8"/>
		</g>
	</g>
</g>
</svg>
