<?xml version="1.0" encoding="utf-8"?>
<!-- Generator: Adobe Illustrator 24.1.1, SVG Export Plug-In . SVG Version: 6.00 Build 0)  -->
<svg version="1.1" id="Layer_1" xmlns="http://www.w3.org/2000/svg" xmlns:xlink="http://www.w3.org/1999/xlink" x="0px" y="0px"
	 viewBox="0 0 295 297.6" style="enable-background:new 0 0 295 297.6;" xml:space="preserve">
<style type="text/css">
	.st0{fill:#FFFFFF;}
</style>
<g id="Layer_2_1_">
	<rect y="-5.2" width="295" height="302.8"/>
</g>
<g id="Layer_1_1_">
	<path class="st0" d="M14.7,129.8h3l17.8,37.1c0.9,1.8,2.3,5.7,2.3,5.7s1.5-3.8,2.3-5.7L58,129.8h3l-22.1,46.5h-2.1L14.7,129.8z"/>
	<path class="st0" d="M71.2,152.9c0-13.1,10.6-23.8,23.8-23.8s23.8,10.6,23.8,23.8c0,13.1-10.6,23.8-23.8,23.8c0,0,0,0,0,0
		c-13,0.2-23.6-10.2-23.8-23.2C71.2,153.3,71.2,153.1,71.2,152.9z M115.8,152.9c0.3-11.5-8.9-21-20.3-21.3
		c-11.5-0.3-21,8.9-21.3,20.3c0,0.3,0,0.6,0,0.9c-0.3,11.5,8.9,21,20.3,21.3s21-8.9,21.3-20.3C115.8,153.5,115.8,153.2,115.8,152.9z
		"/>
	<path class="st0" d="M132.3,168.9l1.6-2c4,4.7,9.9,7.3,16,7.1c7.1,0,14.9-2.9,14.9-10.3c0-6.4-7.5-8.3-14.7-10.1
		c-8.1-2.1-15.8-4.8-15.8-12.5c0-7.9,7.7-11.9,15.5-11.9c4.7,0,10,1,14.7,5.3l-1.4,2.1c-4.1-3.9-9.2-4.7-13.3-4.7
		c-6.1,0-12.6,3-12.6,9.2c0,6,6.6,7.8,13.5,9.7c8.3,2.2,17,4.8,17,13c0,9.3-9.3,13-17.9,13C141.9,176.7,136,173.3,132.3,168.9z"/>
	<path class="st0" d="M182.3,168.9l1.6-2c4,4.7,9.9,7.3,16,7.1c7.1,0,14.9-2.9,14.9-10.3c0-6.4-7.5-8.3-14.7-10.1
		c-8.1-2.1-15.8-4.8-15.8-12.5c0-7.9,7.7-11.9,15.5-11.9c4.7,0,10,1,14.7,5.3l-1.4,2.1c-4.1-3.8-9.2-4.7-13.3-4.7
		c-6.1,0-12.6,3-12.6,9.2c0,6,6.6,7.8,13.5,9.7c8.3,2.2,17,4.8,17,13c0,9.3-9.3,13-17.9,13C191.8,176.7,185.9,173.3,182.3,168.9z"/>
	<path class="st0" d="M232.3,152.9c0-13.1,10.6-23.8,23.8-23.8c13.1,0,23.8,10.6,23.8,23.8c0,13.1-10.6,23.8-23.8,23.8c0,0,0,0,0,0
		c-13,0.1-23.6-10.3-23.8-23.2C232.3,153.3,232.3,153.1,232.3,152.9z M276.9,152.9c0.3-11.5-8.9-21-20.3-21.3
		c-11.5-0.3-21,8.9-21.3,20.3c0,0.3,0,0.6,0,0.9c-0.3,11.5,8.9,21,20.3,21.3c11.5,0.3,21-8.9,21.3-20.3
		C276.9,153.5,276.9,153.2,276.9,152.9z"/>
	<path class="st0" d="M37.6,104.1L37.6,104.1c1.4,0,2.7,0.3,3.9,0.9c2.1,0.9,3.6,2.7,4.2,4.9c2,7.3-3.8,19.5-8,26.6
		c-4-7.2-9.6-19.7-7.6-26.9c0.5-2,1.9-3.7,3.7-4.6C35,104.4,36.3,104.1,37.6,104.1 M37.6,101.4c-1.7,0-3.4,0.4-5,1.2
		c-15.1,7.6,5,39.1,5,39.1s21.3-31.5,5-39.2C41,101.8,39.2,101.4,37.6,101.4L37.6,101.4z"/>
</g>
</svg>
